{"asset":{"version":"2.0","generator":"THREE.GLTFExporter r178"},"scenes":[{"nodes":[0]}],"scene":0,"nodes":[{"mesh":0}],"bufferViews":[{"buffer":0,"byteOffset":0,"byteLength":30636,"target":34962,"byteStride":12},{"buffer":0,"byteOffset":30636,"byteLength":5108,"target":34963}],"buffers":[{"byteLength":35744,"uri":"data:application/octet-stream;base64,"}],"accessors":[{"bufferView":0,"componentType":5126,"count":2553,"max":[23.86666488647461,1013.239990234375,1247.0533447265625],"min":[-33.733333587646484,1005.6400146484375,1182.0533447265625],"type":"VEC3"},{"bufferView":1,"componentType":5123,"count":2553,"max":[2552],"min":[0],"type":"SCALAR"}],"materials":[{"pbrMetallicRoughness":{"metallicFactor":0,"roughnessFactor":1}}],"meshes":[{"primitives":[{"mode":4,"attributes":{"POSITION":0},"indices":1,"material":0}]}]}